<svg xmlns="http://www.w3.org/2000/svg" width="1600" height="900" viewBox="0 0 1600 900" role="img" aria-labelledby="title desc">
  <title id="title">Kan local-first breach defense</title>
  <desc id="desc">Cover image for the Kan Gemma 4 Good Hackathon submission.</desc>
  <rect width="1600" height="900" fill="#f7f7f2"/>
  <rect x="0" y="0" width="1600" height="112" fill="#dce9e3"/>
  <text x="96" y="76" font-family="Inter, Arial, sans-serif" font-size="54" font-weight="700" fill="#111814">Kan</text>
  <g transform="translate(1120 34)">
    <rect x="0" y="0" width="180" height="54" rx="8" fill="#f7f7f2" stroke="#0b7a63" stroke-width="3"/>
    <text x="24" y="36" font-family="Inter, Arial, sans-serif" font-size="24" font-weight="700" fill="#0b7a63">Modo local</text>
  </g>
  <g transform="translate(1320 34)">
    <rect x="0" y="0" width="190" height="54" rx="8" fill="#f7f7f2" stroke="#0b7a63" stroke-width="3"/>
    <text x="24" y="36" font-family="Inter, Arial, sans-serif" font-size="24" font-weight="700" fill="#0b7a63">Gemma 4</text>
  </g>

  <text x="96" y="238" font-family="Inter, Arial, sans-serif" font-size="70" font-weight="800" fill="#111814">Local-first breach defense</text>
  <text x="96" y="310" font-family="Inter, Arial, sans-serif" font-size="34" fill="#303934">Detecta, explica y prepara una denuncia sin enviar el CUI.</text>

  <g transform="translate(96 390)">
    <rect x="0" y="0" width="575" height="315" rx="8" fill="#eaf4ef"/>
    <text x="40" y="70" font-family="Inter, Arial, sans-serif" font-size="34" font-weight="800" fill="#111814">Trazas visibles</text>
    <text x="40" y="128" font-family="Menlo, Consolas, monospace" font-size="26" fill="#0b3028">load_breach_catalog(asset) -&gt; ok</text>
    <text x="40" y="176" font-family="Menlo, Consolas, monospace" font-size="26" fill="#0b3028">routing_decision(local_model)</text>
    <text x="40" y="224" font-family="Menlo, Consolas, monospace" font-size="26" fill="#0b3028">gemma_api(gemma-4-31b-it) -&gt; ok</text>
    <text x="40" y="272" font-family="Menlo, Consolas, monospace" font-size="26" fill="#0b3028">cactus local metrics -&gt; captured</text>
  </g>

  <g transform="translate(760 190)">
    <rect x="0" y="0" width="420" height="640" rx="42" fill="#111814"/>
    <rect x="24" y="28" width="372" height="584" rx="28" fill="#f7f7f2"/>
    <text x="58" y="104" font-family="Inter, Arial, sans-serif" font-size="44" font-weight="800" fill="#111814">Kan</text>
    <rect x="58" y="144" width="304" height="58" rx="8" fill="#dce9e3" stroke="#0b7a63" stroke-width="2"/>
    <text x="88" y="183" font-family="Inter, Arial, sans-serif" font-size="25" font-weight="700" fill="#0b3028">CUI sintetico</text>
    <rect x="58" y="236" width="304" height="90" rx="8" fill="#ffd8d4"/>
    <text x="84" y="292" font-family="Inter, Arial, sans-serif" font-size="28" font-weight="800" fill="#111814">Coincidencia</text>
    <rect x="58" y="360" width="304" height="184" rx="8" fill="#eaf4ef"/>
    <text x="84" y="416" font-family="Inter, Arial, sans-serif" font-size="28" font-weight="800" fill="#111814">Denuncia lista</text>
    <text x="84" y="470" font-family="Inter, Arial, sans-serif" font-size="22" fill="#303934">Guia clara en espanol</text>
    <text x="84" y="510" font-family="Inter, Arial, sans-serif" font-size="22" fill="#303934">Documento local</text>
  </g>

  <g transform="translate(1210 410)">
    <rect x="0" y="0" width="270" height="72" rx="8" fill="#0b7a63"/>
    <text x="32" y="46" font-family="Inter, Arial, sans-serif" font-size="28" font-weight="800" fill="#ffffff">Digital Equity</text>
    <rect x="0" y="96" width="270" height="72" rx="8" fill="#173c35"/>
    <text x="32" y="142" font-family="Inter, Arial, sans-serif" font-size="28" font-weight="800" fill="#ffffff">Safety &amp; Trust</text>
    <rect x="0" y="192" width="270" height="72" rx="8" fill="#385b52"/>
    <text x="32" y="238" font-family="Inter, Arial, sans-serif" font-size="28" font-weight="800" fill="#ffffff">Cactus routing</text>
  </g>
</svg>
